# xmcd
# 
# Track frame offsets:
#     150
#     16223
#     50306
#     61916
#     79347
#     91274
#     111566
#     139222
#     148640
#     163634
#     180826
#     200139
# 
# Disc length: 2805
# 
# Revision: 2
# Processed by: cddbd v1.5.2PL0 Copyright (c) Steve Scherf et al.
# Submitted via: fre:ac v1.0.17
# 
DISCID=a30af30c
DTITLE=Herbert Pixner Projekt - Na und?!
DYEAR=2012
DGENRE=Volksmusik
TTITLE0=Randissimo
TTITLE1=Morgenrot
TTITLE2=Beltane Dance 
TTITLE3=Beautiful Seeress
TTITLE4=Na und?!
TTITLE5=Brandner
TTITLE6=Misty
TTITLE7=Nord 
TTITLE8=Passeirer Jodler und Landler
TTITLE9=Gernstl unterwegs
TTITLE10=Dirty Kathy
TTITLE11=Spitfire
EXTD=
EXTT0=
EXTT1=
EXTT2=
EXTT3=
EXTT4=
EXTT5=
EXTT6=
EXTT7=
EXTT8=
EXTT9=
EXTT10=
EXTT11=
PLAYORDER=
